<?xml version="1.0" standalone="no"?>
<!DOCTYPE svg PUBLIC "-//W3C//DTD SVG 20010904//EN"
 "http://www.w3.org/TR/2001/REC-SVG-20010904/DTD/svg10.dtd">
<svg version="1.0" xmlns="http://www.w3.org/2000/svg"
 width="500.000000pt" height="500.000000pt" viewBox="0 0 437 127"
 preserveAspectRatio="xMidYMid meet">

<g transform="translate(0.000000,500.000000) scale(0.100000,-0.100000)"
fill="white" stroke="none">
<path d="M3480 2725 l0 -395 80 0 80 0 0 90 c0 50 3 90 8 90 4 0 48 -40 97
-90 l90 -90 105 0 105 0 -125 125 -125 125 110 110 110 110 -105 0 -106 0 -74
-75 c-41 -41 -78 -75 -82 -75 -5 0 -8 106 -8 235 l0 235 -80 0 -80 0 0 -395z"/>
<path d="M1056 3043 c-3 -27 -17 -178 -31 -338 -14 -159 -27 -309 -31 -332
l-5 -43 89 0 89 0 17 223 c10 122 19 223 20 224 1 1 37 -99 80 -223 l79 -225
51 3 51 3 75 212 c41 116 78 214 81 217 3 3 11 -69 18 -162 6 -92 15 -191 18
-219 l6 -53 83 0 84 0 0 31 c0 17 -7 109 -16 205 -8 96 -14 179 -12 185 2 6
49 -69 105 -167 l101 -179 -79 -151 c-44 -83 -79 -154 -79 -157 0 -4 42 -7 93
-7 l92 0 180 346 c99 191 182 350 183 355 2 5 -39 9 -90 9 l-94 0 -54 -116
c-62 -134 -51 -136 -133 19 l-51 97 -92 0 -91 0 -13 145 -13 145 -92 0 -93 0
-50 -127 c-27 -71 -64 -168 -83 -216 -39 -105 -27 -119 -129 151 l-74 192 -92
0 -92 0 -6 -47z"/>
<path d="M2611 3068 c-5 -13 -72 -180 -150 -372 -77 -192 -141 -353 -141 -358
0 -5 41 -7 92 -6 l92 3 25 72 26 73 145 0 145 0 28 -75 28 -75 95 0 c52 0 93
4 90 9 -3 5 11 3 32 -5 56 -20 189 -17 237 5 51 23 70 46 84 98 9 33 8 50 -3
85 -18 50 -33 63 -129 103 -55 23 -72 35 -72 50 0 17 7 20 45 19 25 0 59 -4
77 -8 30 -8 32 -6 58 43 l25 51 -27 11 c-94 36 -210 32 -279 -10 -65 -40 -82
-144 -32 -198 13 -14 56 -41 96 -60 62 -29 73 -38 70 -56 -5 -33 -61 -34 -120
-3 l-47 25 -22 -37 -22 -37 -11 25 c-6 13 -67 164 -136 335 l-126 310 -82 3
c-78 3 -83 2 -91 -20z m169 -429 c0 -5 -36 -9 -80 -9 -44 0 -80 3 -80 8 0 4
15 45 33 92 18 47 37 94 41 105 6 16 16 -3 47 -84 21 -57 39 -108 39 -112z"/>
</g>
</svg>
