<?xml version="1.0" standalone="no"?>
<!DOCTYPE svg PUBLIC "-//W3C//DTD SVG 20010904//EN"
 "http://www.w3.org/TR/2001/REC-SVG-20010904/DTD/svg10.dtd">
<svg version="1.0" xmlns="http://www.w3.org/2000/svg"
 width="305.000000pt" height="104.000000pt" viewBox="0 0 305.000000 104.000000"
 preserveAspectRatio="xMidYMid meet">

<g transform="translate(0.000000,104.000000) scale(0.100000,-0.100000)"
fill="white" stroke="none">
<path d="M2490 635 l0 -395 80 0 80 0 0 90 c0 50 3 90 8 90 4 0 48 -41 97 -90
l90 -90 105 0 105 0 -125 125 -125 125 110 110 110 110 -105 0 -105 0 -82 -82
-83 -83 0 243 0 242 -80 0 -80 0 0 -395z"/>
<path d="M66 948 c-3 -29 -17 -183 -31 -343 -14 -159 -27 -307 -30 -327 l-5
-38 88 0 89 0 12 174 c7 96 16 198 19 227 l7 54 79 -228 79 -228 51 3 51 3 76
218 c42 119 78 219 81 222 2 3 10 -70 17 -163 7 -92 15 -193 18 -224 l6 -58
83 0 84 0 -1 38 c0 20 -8 121 -17 224 -10 103 -16 185 -14 183 2 -2 50 -86
107 -187 l103 -183 -79 -152 c-43 -83 -79 -154 -79 -157 0 -3 42 -6 93 -6 l92
0 180 347 c99 191 182 351 183 355 2 4 -39 8 -90 8 l-94 0 -51 -111 c-28 -60
-54 -111 -59 -111 -5 -1 -36 49 -69 110 l-60 112 -91 0 -91 0 -6 63 c-4 34
-10 99 -13 145 l-7 82 -92 0 -93 0 -40 -102 c-21 -57 -58 -154 -82 -216 -24
-62 -46 -109 -50 -105 -4 4 -42 101 -86 216 l-79 207 -91 0 -92 0 -6 -52z"/>
<path d="M1620 974 c-6 -15 -72 -178 -146 -363 -75 -185 -139 -344 -141 -354
-5 -16 2 -18 87 -15 l93 3 26 73 26 72 146 0 146 0 28 -75 27 -75 95 0 c57 0
92 4 88 9 -3 6 15 3 41 -6 59 -20 195 -14 242 11 48 25 72 70 72 135 0 48 -3
57 -37 91 -24 23 -59 44 -93 55 -65 20 -85 37 -76 60 5 14 15 17 59 12 28 -3
61 -8 72 -12 17 -5 24 2 43 40 12 25 22 49 22 54 0 16 -94 36 -163 35 -123 -2
-204 -68 -193 -158 7 -57 34 -87 117 -128 60 -30 74 -41 74 -60 0 -35 -62 -37
-119 -4 l-43 25 -23 -41 -23 -40 -118 293 c-66 162 -127 314 -137 339 l-18 45
-82 3 c-81 3 -82 2 -92 -24z m166 -410 c6 -24 5 -24 -75 -24 -45 0 -81 3 -81
8 0 8 69 193 77 206 6 9 65 -135 79 -190z"/>
</g>
</svg>
